<svg xmlns="http://www.w3.org/2000/svg" height="512" viewBox="0 0 512 512" width="512" class="undefined">
  <path d="m406.5 60.9v60h-30v-60h-105.5v60h-30v-60h-105.5v60h-30v-60h-105.5v390.3h105.5v-60h30v60h105.5v-60h30v60h105.5v-60h30v60h105.5v-390.3zm0 90v30h-30v-30zm0 60v90.1h-30v-90.1zm-135.5-60v30h-30v-30zm0 60v90.1h-30v-90.1zm-135.5-60v30h-30v-30zm0 60v90.1h-30v-90.1zm-60 210.2h-45.5v-330.3h45.5zm30-60v-30h30v30zm105.5 60h-45.5v-330.3h45.5zm30-60v-30h30v30zm105.5 60h-45.5v-330.3h45.5zm30-60v-30h30v30zm105.5 60h-45.5v-330.3h45.5z" class="undefined"/>
</svg>
