<svg xmlns="http://www.w3.org/2000/svg" height="511" viewBox="1 0 512 511" width="511" class="undefined">
  <path d="m451.8 45.7h-89.9v45.1l-105.9-90.2-256 218.2 60.2 43.2v220.2h-59.9v30h511.4v-30h-59.9v-220.2l60.2-43.2-60.2-51.3zm-59.9 30h30v66.2l-30-25.5zm-209.2 254.7h146.7c-10.1 48.4-55.8 57.2-58.4 58.8v93h-30v-93c-2.6-1.7-48.3-10.4-58.4-58.8zm28.4-30h-28.4c3.7-17.8 13.9-33.7 28.4-44.6zm89.9 0v-44.6c14.5 10.9 24.7 26.8 28.4 44.6zm0 181.8v-72.4c36.2-17.2 59.9-53.9 59.9-94.4 0-84.9-88.1-104.4-89.9-105.6v90.6h-30v-90.6c-3.5 2.4-89.9 19.3-89.9 105.6 0 40.5 23.7 77.1 59.9 94.4v72.4h-120.8v-221l165.8-142.2 165.8 142.2v221h-120.8zm136.7-246.9-181.6-155.8-181.6 155.8-25.8-18.5 207.4-176.8 207.4 176.8zm0 0" class="undefined"/>
</svg>
